<?xml version="1.0" encoding="iso-8859-1"?>
<!-- Generator: Adobe Illustrator 19.0.0, SVG Export Plug-In . SVG Version: 6.00 Build 0)  -->
<svg version="1.1" id="Capa_1" xmlns="http://www.w3.org/2000/svg" xmlns:xlink="http://www.w3.org/1999/xlink" x="0px" y="0px"
	 viewBox="0 0 368 368" style="enable-background:new 0 0 368 368;" xml:space="preserve">
<path style="fill:#CCE4FF;" d="M264,40v96h-48V56H56v80h80c-17.68,0-32,14.32-32,32v16H72L8,232V40C8,22.32,22.32,8,40,8h192
	C249.68,8,264,22.32,264,40z"/>
<g>
	<path style="fill:#007AFF;" d="M328,128h-56V40c0-22.056-17.944-40-40-40H40C17.944,0,0,17.944,0,40v192
		c0,3.032,1.712,5.8,4.424,7.16C5.552,239.72,6.784,240,8,240c1.696,0,3.384-0.536,4.8-1.6L74.664,192H96v88
		c0,22.056,17.944,40,40,40h157.336l61.864,46.4c1.408,1.064,3.104,1.6,4.8,1.6c1.216,0,2.448-0.28,3.576-0.84
		c2.712-1.36,4.424-4.128,4.424-7.16V168C368,145.944,350.056,128,328,128z M72,176c-1.728,0-3.416,0.56-4.8,1.6L16,216V40
		c0-13.232,10.768-24,24-24h192c13.232,0,24,10.768,24,24v88h-32V56c0-4.424-3.576-8-8-8H56c-4.416,0-8,3.576-8,8v80
		c0,4.424,3.584,8,8,8h48.208C99.128,150.704,96,158.96,96,168v8H72z M64,128V64h144v64H64z M352,344l-51.2-38.4
		c-1.384-1.04-3.064-1.6-4.8-1.6H136c-13.232,0-24-10.768-24-24V168c0-13.232,10.768-24,24-24h80h112c13.232,0,24,10.768,24,24V344z
		"/>
	<path style="fill:#007AFF;" d="M312,192H152c-4.416,0-8,3.576-8,8s3.584,8,8,8h160c4.424,0,8-3.576,8-8S316.424,192,312,192z"/>
	<path style="fill:#007AFF;" d="M312,240H152c-4.416,0-8,3.576-8,8s3.584,8,8,8h160c4.424,0,8-3.576,8-8S316.424,240,312,240z"/>
</g>
<g>
</g>
<g>
</g>
<g>
</g>
<g>
</g>
<g>
</g>
<g>
</g>
<g>
</g>
<g>
</g>
<g>
</g>
<g>
</g>
<g>
</g>
<g>
</g>
<g>
</g>
<g>
</g>
<g>
</g>
</svg>
